<?xml version="1.0" standalone="no"?>
<!DOCTYPE svg PUBLIC "-//W3C//DTD SVG 20010904//EN"
 "http://www.w3.org/TR/2001/REC-SVG-20010904/DTD/svg10.dtd">
<svg version="1.0" xmlns="http://www.w3.org/2000/svg"
 width="78.000000pt" height="78.000000pt" viewBox="0 0 78.000000 78.000000"
 preserveAspectRatio="xMidYMid meet">
<metadata>
Created by potrace 1.14, written by Peter Selinger 2001-2017
</metadata>
<g transform="translate(0.000000,78.000000) scale(0.100000,-0.100000)"
fill="#000000" stroke="none">
<path d="M663 678 c-17 -17 -19 -25 -11 -44 14 -31 3 -71 -25 -86 -14 -8 -85
-14 -197 -18 -199 -6 -232 -16 -280 -82 -30 -42 -46 -104 -35 -139 7 -21 7
-21 35 6 25 24 27 30 18 56 -12 35 2 78 33 97 11 7 50 16 86 19 l66 6 -6 -49
c-4 -27 -12 -97 -18 -156 -13 -120 -34 -168 -72 -168 -13 0 -32 -9 -42 -20
-18 -20 -17 -20 66 -20 79 0 109 9 109 32 0 4 -17 8 -37 8 -36 0 -37 1 -16 15
29 20 40 59 53 190 18 180 10 165 94 165 124 0 216 64 216 151 0 51 -12 63
-37 37z"/>
</g>
</svg>
